# xmcd
#
# Track frame offsets:
#	150
#	11630
#	21163
#	31648
#	44092
#	56396
#	68123
#	79742
#	91321
#	103060
#	113233
#	124834
#	137761
#	148814
#	162016
#	173731
#	185717
#	198811
#	209293
#	221062
#
# Disc length: 3115 seconds
#
# Revision: 1
# Processed by: cddbd v1.5.2PL0 Copyright (c) Steve Scherf et al.
# Submitted via: audiograbber 1.83.01
#
DISCID=1c0c2914
DTITLE=Drifters - Three Classic Albums Plus Singles and Bonus Tracks  [CD3)
DYEAR=2014
DGENRE=Oldies
TTITLE0=Save The Last Dance For Me
TTITLE1=I Count The Tears
TTITLE2=Somebody New Dancing With You
TTITLE3=Jackpot
TTITLE4=No Sweet Lovin'
TTITLE5=Sweets For My Sweets
TTITLE6=Mexican Divorce
TTITLE7=When My Little Girl Is Smiling
TTITLE8=Some Kind Of Wonderful
TTITLE9=Please Stay
TTITLE10=Nobody But Me
TTITLE11=Room Full Of Tears
TTITLE12=Suddenly There's A Valley
TTITLE13=Honey Bee
TTITLE14=Loneliness Or Happiness
TTITLE15=Stranger On The Shore
TTITLE16=What To Do
TTITLE17=Sometimes I Wonder
TTITLE18=Up Un The Roof
TTITLE19=Another Night With The Boys
EXTD=
EXTT0=
EXTT1=
EXTT2=
EXTT3=
EXTT4=
EXTT5=
EXTT6=
EXTT7=
EXTT8=
EXTT9=
EXTT10=
EXTT11=
EXTT12=
EXTT13=
EXTT14=
EXTT15=
EXTT16=
EXTT17=
EXTT18=
EXTT19=
PLAYORDER=
